<svg xmlns="http://www.w3.org/2000/svg" viewBox="0 0 250 280" width="100%" height="100%">
  <defs>
    <clipPath id="head-clip">
      <path d="M 60,110 C 60,75 190,75 190,110 C 190,145 190,155 165,155 L 85,155 C 60,155 60,145 60,110 Z" />
    </clipPath>
  </defs>

  <g id="concurseiro-character">
    <path d="M 85,265 L 115,265 L 110,275 L 80,275 Z" fill="#2d3436" />
    <path d="M 135,265 L 165,265 L 170,275 L 140,275 Z" fill="#2d3436" />

    <rect x="92" y="240" width="18" height="26" fill="#ffdfba" />
    <rect x="140" y="240" width="18" height="26" fill="#ffdfba" />

    <path d="M 85,210 L 165,210 L 165,242 L 138,242 L 135,230 L 115,230 L 112,242 L 85,242 Z" fill="#e28743" />

    <path d="M 65,170 C 50,180 40,200 42,230 C 43,245 55,255 70,255 C 75,255 80,245 80,235 C 80,210 75,185 75,170 Z" fill="#ffdfba" />
    <path d="M 185,170 C 200,180 210,200 208,230 C 207,245 195,255 180,255 C 175,255 170,245 170,235 C 170,210 175,185 175,170 Z" fill="#ffdfba" />

    <path d="M 80,160 L 170,160 L 180,212 L 70,212 Z" fill="#b2bec3" />
    <path d="M 80,160 L 55,180 L 68,195 L 80,185 Z" fill="#95a5a6" />
    <path d="M 170,160 L 195,180 L 182,195 L 170,185 Z" fill="#95a5a6" />
    <path d="M 110,160 L 125,175 L 140,160 Z" fill="#ffdfba" />
    <path d="M 110,160 L 125,175 L 118,175 Z" fill="#7f8c8d" opacity="0.3" />
    <path d="M 140,160 L 125,175 L 132,175 Z" fill="#7f8c8d" opacity="0.3" />

    <rect x="110" y="145" width="30" height="20" fill="#fcd7b0" />

    <circle cx="62" cy="125" r="15" fill="#ffdfba" />
    <circle cx="62" cy="125" r="9" fill="#fcd7b0" />
    <circle cx="188" cy="125" r="15" fill="#ffdfba" />
    <circle cx="188" cy="125" r="9" fill="#fcd7b0" />

    <path d="M 60,110 C 60,75 190,75 190,110 C 190,145 190,155 165,155 L 85,155 C 60,155 60,145 60,110 Z" fill="#ffdfba" />

    <ellipse cx="98" cy="118" rx="16" ry="10" fill="#d1ccc0" opacity="0.6" />
    <ellipse cx="152" cy="118" rx="16" ry="10" fill="#d1ccc0" opacity="0.6" />

    <circle cx="98" cy="116" r="7" fill="#ffffff" />
    <circle cx="98" cy="116" r="3" fill="#2d3436" />
    <circle cx="152" cy="116" r="7" fill="#ffffff" />
    <circle cx="152" cy="116" r="3" fill="#2d3436" />

    <circle cx="98" cy="116" r="15" fill="none" stroke="#2d3436" stroke-width="3" />
    <circle cx="152" cy="116" r="15" fill="none" stroke="#2d3436" stroke-width="3" />
    <line x1="113" y1="116" x2="137" y2="116" stroke="#2d3436" stroke-width="3" />
    <line x1="63" y1="116" x2="83" y2="114" stroke="#2d3436" stroke-width="2" />
    <line x1="167" y1="114" x2="187" y2="116" stroke="#2d3436" stroke-width="2" />

    <path d="M 82,98 L 112,102" stroke="#2d3436" stroke-width="4" stroke-linecap="round" />
    <path d="M 168,98 L 138,102" stroke="#2d3436" stroke-width="4" stroke-linecap="round" />

    <ellipse cx="125" cy="124" rx="6" ry="4" fill="#fcd7b0" />

    <path d="M 112,142 Q 125,135 138,142" fill="none" stroke="#2d3436" stroke-width="3" stroke-linecap="round" />

    <path d="M 60,100 
             C 55,75 70,50 90,55 
             C 95,40 120,30 135,45 
             C 150,35 175,40 185,55 
             C 195,65 195,85 192,100
             C 185,95 175,95 170,102
             C 155,90 140,100 130,95
             C 115,95 105,90 95,102
             C 85,92 70,95 60,100 Z" fill="#2d3436" />

    <path d="M 72,62 A 60,60 0 0,1 178,62" fill="none" stroke="#0984e3" stroke-width="5" />
    <rect x="50" y="105" width="14" height="32" rx="7" fill="#0984e3" />
    <rect x="61" y="110" width="5" height="22" rx="2" fill="#74b9ff" />
    <rect x="186" y="105" width="14" height="32" rx="7" fill="#0984e3" />
    <rect x="184" y="110" width="5" height="22" rx="2" fill="#74b9ff" />
  </g>
</svg>
